<?xml version="1.0" standalone="no"?>
<!DOCTYPE svg PUBLIC "-//W3C//DTD SVG 20010904//EN"
 "http://www.w3.org/TR/2001/REC-SVG-20010904/DTD/svg10.dtd">
<svg version="1.0" xmlns="http://www.w3.org/2000/svg"
 width="225.000000pt" height="225.000000pt" viewBox="0 0 225.000000 225.000000"
 preserveAspectRatio="xMidYMid meet">
<metadata>
Created by potrace 1.14, written by Peter Selinger 2001-2017
</metadata>
<g transform="translate(0.000000,225.000000) scale(0.100000,-0.100000)"
fill="#000000" stroke="none">
<path d="M710 2243 c-138 -21 -354 -136 -507 -270 l-22 -20 45 -73 c61 -100
130 -184 215 -265 l72 -67 -49 -47 c-330 -309 -311 -835 40 -1115 339 -271
831 -191 1074 174 42 63 74 140 99 231 22 86 22 262 -1 349 -46 173 -162 340
-297 427 -33 21 -58 41 -56 45 3 9 110 88 120 88 5 0 30 -17 55 -37 341 -274
441 -728 245 -1108 -86 -167 -218 -296 -393 -385 -219 -110 -478 -123 -710
-33 -59 23 -168 79 -180 92 -3 4 -23 19 -45 36 -234 174 -374 512 -333 806 8
54 -1 72 -33 67 -17 -2 -25 -12 -31 -38 -8 -36 -10 -205 -4 -252 32 -223 122
-407 275 -559 135 -133 297 -221 480 -259 127 -26 315 -20 439 14 246 69 455
231 579 451 39 69 87 192 98 250 3 17 8 41 11 55 3 14 7 75 9 135 5 126 -13
242 -51 343 -14 37 -26 73 -27 80 -1 7 34 27 81 47 176 72 289 177 324 300 13
49 17 159 7 200 -5 17 -10 41 -13 55 -7 40 -36 121 -63 173 -22 44 -27 48 -51
42 -56 -14 -176 -69 -233 -107 -173 -116 -228 -273 -173 -492 5 -23 -5 -16
-62 43 -38 39 -97 90 -132 115 -45 32 -78 65 -112 118 -196 293 -434 428 -690
391z"/>
</g>
</svg>
